<svg xmlns="http://www.w3.org/2000/svg" width="100%" height="100%" viewBox="0 0 115.5 101.0">
	<rect style="fill:#d0d0d0;stroke:#000000;stroke-width:0.3" id="main" width="113.5" height="99.0" x="1" y="1" rx="3"/>
	<rect style="fill:#6a6a6a;stroke:#ffffff;stroke-width:0.1" id="block_1" width="40" height="6" x="10" y="12.0" rx="0.7"/>
	<rect style="fill:#3e73a2;stroke:#ffffff;stroke-width:0.1" id="comm_2" width="40" height="2" x="10" y="19.0" rx="0.7"/>
	<rect style="fill:#6a6a6a;stroke:#ffffff;stroke-width:0.1" id="block_3" width="40" height="6" x="10" y="22.0" rx="0.7"/>
	<rect style="fill:#6a6a6a;stroke:#ffffff;stroke-width:0.1" id="block_4" width="40" height="6" x="10" y="29.0" rx="0.7"/>
	<rect style="fill:#6a6a6a;stroke:#ffffff;stroke-width:0.1" id="block_5" width="40" height="6" x="10" y="36.0" rx="0.7"/>
	<rect style="fill:#6a6a6a;stroke:#ffffff;stroke-width:0.1" id="block_6" width="40" height="6" x="10" y="43.0" rx="0.7"/>
	<rect style="fill:#6a6a6a;stroke:#ffffff;stroke-width:0.1" id="block_7" width="40" height="6" x="10" y="50.0" rx="0.7"/>
	<rect style="fill:#6a6a6a;stroke:#ffffff;stroke-width:0.1" id="block_8" width="40" height="6" x="10" y="57.0" rx="0.7"/>
	<rect style="fill:#6b3fa1;stroke:#ffffff;stroke-width:0.1" id="comm_9" width="40" height="2" x="10" y="64.0" rx="0.7"/>
	<rect style="fill:#6a6a6a;stroke:#ffffff;stroke-width:0.1" id="block_9" width="40" height="6" x="10" y="67.0" rx="0.7"/>
	<rect style="fill:#6a6a6a;stroke:#ffffff;stroke-width:0.1" id="block_15" width="40" height="6" x="10" y="74.0" rx="0.7"/>
	<rect style="fill:#6a6a6a;stroke:#ffffff;stroke-width:0.1" id="block_16" width="40" height="6" x="10" y="81.0" rx="0.7"/>
	<rect style="fill:#6a6a6a;stroke:#ffffff;stroke-width:0.1" id="block_10" width="40" height="7.016949152542373" x="65" y="12.0" rx="0.7"/>
	<rect style="fill:#6a6a6a;stroke:#ffffff;stroke-width:0.1" id="block_11" width="40" height="7.016949152542373" x="65" y="20.016949152542374" rx="0.7"/>
	<rect style="fill:#6a6a6a;stroke:#ffffff;stroke-width:0.1" id="block_12" width="40" height="7.016949152542373" x="65" y="28.033898305084747" rx="0.7"/>
	<rect style="fill:#6a6a6a;stroke:#ffffff;stroke-width:0.1" id="block_13" width="40" height="7.016949152542373" x="65" y="36.05084745762712" rx="0.7"/>
	<rect style="fill:#6a6a6a;stroke:#ffffff;stroke-width:0.1" id="block_14" width="40" height="7.016949152542373" x="65" y="44.067796610169495" rx="0.7"/>
	<rect style="fill:#9e9e9e;stroke:#ffffff;stroke-width:0.1" id="blade_1" width="40" height="35.08474576271186" x="65" y="52.08474576271187" rx="0.7"/>
	<rect style="fill:#6a6a6a;stroke:#ffffff;stroke-width:0.1" id="server_1" width="2.9" height="32.08474576271186" x="66" y="53.08474576271187" rx="0.7"/>
	<rect style="fill:#6a6a6a;stroke:#ffffff;stroke-width:0.1" id="server_2" width="2.9" height="32.08474576271186" x="69.9" y="53.08474576271187" rx="0.7"/>
	<rect style="fill:#6a6a6a;stroke:#ffffff;stroke-width:0.1" id="server_3" width="6.8" height="32.08474576271186" x="73.80000000000001" y="53.08474576271187" rx="0.7"/>
	<rect style="fill:#6a6a6a;stroke:#ffffff;stroke-width:0.1" id="server_4" width="2.9" height="32.08474576271186" x="81.60000000000001" y="53.08474576271187" rx="0.7"/>
	<rect style="fill:#6a6a6a;stroke:#ffffff;stroke-width:0.1" id="server_5" width="2.9" height="32.08474576271186" x="85.50000000000001" y="53.08474576271187" rx="0.7"/>
	<rect style="fill:#6a6a6a;stroke:#ffffff;stroke-width:0.1" id="server_6" width="6.8" height="32.08474576271186" x="97.20000000000003" y="53.08474576271187" rx="0.7"/>
	<g id="link_1" style="fill:none;stroke:#3e73a2;stroke-width:0.5">
		<path d="M 10 39.0 H 9"/>
		<path d="M 65 23.52542372881356 H 64"/>
		<path d="M 9 38.85 V 88.31949152542373"/>
		<path d="M 64 23.375423728813562 V 88.31949152542373"/>
		<path d="M 9 88.16949152542372 H 64"/>
	</g>
	<g id="link_2" style="fill:none;stroke:#6b3fa1;stroke-width:0.5">
		<path d="M 10 46.0 H 8"/>
		<path d="M 65 15.508474576271187 H 63"/>
		<path d="M 8 45.85 V 89.31949152542373"/>
		<path d="M 63 15.358474576271187 V 89.31949152542373"/>
		<path d="M 8 89.16949152542372 H 63"/>
	</g>
	<g id="link_3" style="fill:none;stroke:#6b3fa1;stroke-width:0.5">
		<path d="M 50 53.0 H 51"/>
		<path d="M 50 60.0 H 51"/>
		<path d="M 50 70.0 H 51"/>
		<path d="M 51 52.85 V 70.15"/>
	</g>
	<g id="link_4" style="fill:none;stroke:#3e73a2;stroke-width:0.5">
		<path d="M 50 77.0 H 51"/>
		<path d="M 105 47.57627118644068 H 106"/>
		<path d="M 51 76.85 V 90.31949152542373"/>
		<path d="M 106 47.42627118644068 V 90.31949152542373"/>
		<path d="M 51 90.16949152542372 H 106"/>
	</g>
	<g id="link_5" style="fill:none;stroke:#6b3fa1;stroke-width:0.5">
		<path d="M 50 77.0 H 52"/>
		<path d="M 77.20000000000002 86.16949152542372 H 62.0"/>
		<path d="M 77.20000000000002 85.01949152542372 V 86.31949152542373"/>
		<path d="M 52 76.85 V 91.31949152542373"/>
		<path d="M 62.0 86.01949152542372 V 91.31949152542373"/>
		<path d="M 52 91.16949152542372 H 62.0"/>
	</g>
	<g id="link_6" style="fill:none;stroke:#3e73a2;stroke-width:0.5">
		<path d="M 105 39.559322033898304 H 107"/>
		<path d="M 83.05000000000001 86.16949152542372 H 107.0"/>
		<path d="M 83.05000000000001 85.01949152542372 V 86.31949152542373"/>
		<path d="M 107 39.409322033898306 V 86.31949152542373"/>
	</g>
</svg>
