<svg xmlns="http://www.w3.org/2000/svg" width="100%" height="100%" viewBox="0 0 226.5 315.0">
	<rect style="fill:#d0d0d0;stroke:#000000;stroke-width:0.3" id="main" width="224.5" height="313.0" x="1" y="1" rx="3"/>
	<text style="font-size:10;fill:#000000" x="112.25" y="12.0" id="name" text-anchor="middle">SC name</text>
	<rect style="fill:#3e73a2;stroke:#ffffff;stroke-width:0.1" id="comm_1" width="70" height="2" x="18" y="12.0" rx="0.7"/>
	<rect style="fill:#6b3fa1;stroke:#ffffff;stroke-width:0.1" id="comm_2" width="70" height="2" x="18" y="15.0" rx="0.7"/>
	<rect style="fill:#6a6a6a;stroke:#ffffff;stroke-width:0.1" id="block_1" width="70" height="6" x="18" y="18.0" rx="0.7"/>
	<rect style="fill:#6a6a6a;stroke:#ffffff;stroke-width:0.1" id="block_2" width="70" height="6" x="18" y="25.0" rx="0.7"/>
	<rect style="fill:#3e73a2;stroke:#ffffff;stroke-width:0.1" id="comm_3" width="70" height="2" x="18" y="32.0" rx="0.7"/>
	<rect style="fill:#3e73a2;stroke:#ffffff;stroke-width:0.1" id="comm_4" width="70" height="2" x="18" y="35.0" rx="0.7"/>
	<rect style="fill:#6a6a6a;stroke:#ffffff;stroke-width:0.1" id="block_3" width="70" height="6" x="18" y="38.0" rx="0.7"/>
	<rect style="fill:#6a6a6a;stroke:#ffffff;stroke-width:0.1" id="block_4" width="70" height="6" x="18" y="45.0" rx="0.7"/>
	<rect style="fill:#6b3fa1;stroke:#ffffff;stroke-width:0.1" id="comm_5" width="70" height="2" x="18" y="52.0" rx="0.7"/>
	<rect style="fill:#6a6a6a;stroke:#ffffff;stroke-width:0.1" id="block_5" width="70" height="6" x="18" y="55.0" rx="0.7"/>
	<rect style="fill:#6a6a6a;stroke:#ffffff;stroke-width:0.1" id="block_6" width="70" height="6" x="18" y="62.0" rx="0.7"/>
	<rect style="fill:#3e73a2;stroke:#ffffff;stroke-width:0.1" id="comm_6" width="70" height="2" x="18" y="69.0" rx="0.7"/>
	<rect style="fill:#3e73a2;stroke:#ffffff;stroke-width:0.1" id="comm_7" width="70" height="2" x="18" y="72.0" rx="0.7"/>
	<rect style="fill:#6a6a6a;stroke:#ffffff;stroke-width:0.1" id="block_7" width="70" height="6" x="18" y="75.0" rx="0.7"/>
	<rect style="fill:#6a6a6a;stroke:#ffffff;stroke-width:0.1" id="block_8" width="70" height="6" x="18" y="82.0" rx="0.7"/>
	<rect style="fill:#6a6a6a;stroke:#ffffff;stroke-width:0.1" id="block_9" width="70" height="6" x="18" y="89.0" rx="0.7"/>
	<rect style="fill:#6a6a6a;stroke:#ffffff;stroke-width:0.1" id="block_10" width="70" height="6" x="18" y="96.0" rx="0.7"/>
	<rect style="fill:#3e73a2;stroke:#ffffff;stroke-width:0.1" id="comm_8" width="70" height="2" x="18" y="103.0" rx="0.7"/>
	<rect style="fill:#3e73a2;stroke:#ffffff;stroke-width:0.1" id="comm_9" width="70" height="2" x="18" y="106.0" rx="0.7"/>
	<rect style="fill:#6a6a6a;stroke:#ffffff;stroke-width:0.1" id="block_11" width="70" height="6" x="18" y="109.0" rx="0.7"/>
	<rect style="fill:#6a6a6a;stroke:#ffffff;stroke-width:0.1" id="block_12" width="70" height="6" x="18" y="116.0" rx="0.7"/>
	<rect style="fill:#6b3fa1;stroke:#ffffff;stroke-width:0.1" id="comm_10" width="70" height="2" x="18" y="123.0" rx="0.7"/>
	<rect style="fill:#6a6a6a;stroke:#ffffff;stroke-width:0.1" id="block_13" width="70" height="6" x="18" y="126.0" rx="0.7"/>
	<rect style="fill:#6a6a6a;stroke:#ffffff;stroke-width:0.1" id="block_14" width="70" height="6" x="18" y="133.0" rx="0.7"/>
	<rect style="fill:#3e73a2;stroke:#ffffff;stroke-width:0.1" id="comm_11" width="70" height="2" x="18" y="140.0" rx="0.7"/>
	<rect style="fill:#3e73a2;stroke:#ffffff;stroke-width:0.1" id="comm_12" width="70" height="2" x="18" y="143.0" rx="0.7"/>
	<rect style="fill:#6a6a6a;stroke:#ffffff;stroke-width:0.1" id="block_15" width="70" height="6" x="18" y="146.0" rx="0.7"/>
	<rect style="fill:#6a6a6a;stroke:#ffffff;stroke-width:0.1" id="block_16" width="70" height="6" x="18" y="153.0" rx="0.7"/>
	<rect style="fill:#6a6a6a;stroke:#ffffff;stroke-width:0.1" id="block_17" width="70" height="6" x="18" y="160.0" rx="0.7"/>
	<rect style="fill:#6a6a6a;stroke:#ffffff;stroke-width:0.1" id="block_18" width="70" height="6" x="18" y="167.0" rx="0.7"/>
	<rect style="fill:#3e73a2;stroke:#ffffff;stroke-width:0.1" id="comm_13" width="70" height="2" x="18" y="174.0" rx="0.7"/>
	<rect style="fill:#3e73a2;stroke:#ffffff;stroke-width:0.1" id="comm_14" width="70" height="2" x="18" y="177.0" rx="0.7"/>
	<rect style="fill:#6a6a6a;stroke:#ffffff;stroke-width:0.1" id="block_19" width="70" height="6" x="18" y="180.0" rx="0.7"/>
	<rect style="fill:#6a6a6a;stroke:#ffffff;stroke-width:0.1" id="block_20" width="70" height="6" x="18" y="187.0" rx="0.7"/>
	<rect style="fill:#6b3fa1;stroke:#ffffff;stroke-width:0.1" id="comm_15" width="70" height="2" x="18" y="194.0" rx="0.7"/>
	<rect style="fill:#6a6a6a;stroke:#ffffff;stroke-width:0.1" id="block_21" width="70" height="6" x="18" y="197.0" rx="0.7"/>
	<rect style="fill:#6a6a6a;stroke:#ffffff;stroke-width:0.1" id="block_22" width="70" height="6" x="18" y="204.0" rx="0.7"/>
	<rect style="fill:#3e73a2;stroke:#ffffff;stroke-width:0.1" id="comm_16" width="70" height="2" x="18" y="211.0" rx="0.7"/>
	<rect style="fill:#3e73a2;stroke:#ffffff;stroke-width:0.1" id="comm_17" width="70" height="2" x="18" y="214.0" rx="0.7"/>
	<rect style="fill:#6a6a6a;stroke:#ffffff;stroke-width:0.1" id="block_23" width="70" height="6" x="18" y="217.0" rx="0.7"/>
	<rect style="fill:#6a6a6a;stroke:#ffffff;stroke-width:0.1" id="block_24" width="70" height="6" x="18" y="224.0" rx="0.7"/>
	<rect style="fill:#6a6a6a;stroke:#ffffff;stroke-width:0.1" id="block_25" width="70" height="6" x="18" y="231.0" rx="0.7"/>
	<rect style="fill:#6a6a6a;stroke:#ffffff;stroke-width:0.1" id="block_26" width="70" height="6" x="18" y="238.0" rx="0.7"/>
	<rect style="fill:#3e73a2;stroke:#ffffff;stroke-width:0.1" id="comm_18" width="70" height="2" x="18" y="245.0" rx="0.7"/>
	<rect style="fill:#3e73a2;stroke:#ffffff;stroke-width:0.1" id="comm_19" width="70" height="2" x="18" y="248.0" rx="0.7"/>
	<rect style="fill:#6a6a6a;stroke:#ffffff;stroke-width:0.1" id="block_27" width="70" height="6" x="18" y="251.0" rx="0.7"/>
	<rect style="fill:#6a6a6a;stroke:#ffffff;stroke-width:0.1" id="block_28" width="70" height="6" x="18" y="258.0" rx="0.7"/>
	<rect style="fill:#6b3fa1;stroke:#ffffff;stroke-width:0.1" id="comm_20" width="70" height="2" x="18" y="265.0" rx="0.7"/>
	<rect style="fill:#6a6a6a;stroke:#ffffff;stroke-width:0.1" id="block_29" width="70" height="6" x="18" y="268.0" rx="0.7"/>
	<rect style="fill:#6a6a6a;stroke:#ffffff;stroke-width:0.1" id="block_30" width="70" height="6" x="18" y="275.0" rx="0.7"/>
	<rect style="fill:#3e73a2;stroke:#ffffff;stroke-width:0.1" id="comm_21" width="70" height="2" x="18" y="282.0" rx="0.7"/>
	<rect style="fill:#3e73a2;stroke:#ffffff;stroke-width:0.1" id="comm_22" width="70" height="2" x="18" y="285.0" rx="0.7"/>
	<rect style="fill:#6a6a6a;stroke:#ffffff;stroke-width:0.1" id="block_31" width="70" height="6" x="18" y="288.0" rx="0.7"/>
	<rect style="fill:#6a6a6a;stroke:#ffffff;stroke-width:0.1" id="block_32" width="70" height="6" x="18" y="295.0" rx="0.7"/>
	<rect style="fill:#3e73a2;stroke:#ffffff;stroke-width:0.1" id="comm_23" width="70" height="2" x="138" y="12.0" rx="0.7"/>
	<rect style="fill:#6b3fa1;stroke:#ffffff;stroke-width:0.1" id="comm_24" width="70" height="2" x="138" y="15.0" rx="0.7"/>
	<rect style="fill:#6a6a6a;stroke:#ffffff;stroke-width:0.1" id="block_33" width="70" height="6" x="138" y="18.0" rx="0.7"/>
	<rect style="fill:#6a6a6a;stroke:#ffffff;stroke-width:0.1" id="block_34" width="70" height="6" x="138" y="25.0" rx="0.7"/>
	<rect style="fill:#3e73a2;stroke:#ffffff;stroke-width:0.1" id="comm_25" width="70" height="2" x="138" y="32.0" rx="0.7"/>
	<rect style="fill:#3e73a2;stroke:#ffffff;stroke-width:0.1" id="comm_26" width="70" height="2" x="138" y="35.0" rx="0.7"/>
	<rect style="fill:#6a6a6a;stroke:#ffffff;stroke-width:0.1" id="block_35" width="70" height="6" x="138" y="38.0" rx="0.7"/>
	<rect style="fill:#6a6a6a;stroke:#ffffff;stroke-width:0.1" id="block_36" width="70" height="6" x="138" y="45.0" rx="0.7"/>
	<rect style="fill:#6b3fa1;stroke:#ffffff;stroke-width:0.1" id="comm_27" width="70" height="2" x="138" y="52.0" rx="0.7"/>
	<rect style="fill:#6a6a6a;stroke:#ffffff;stroke-width:0.1" id="block_37" width="70" height="6" x="138" y="55.0" rx="0.7"/>
	<rect style="fill:#6a6a6a;stroke:#ffffff;stroke-width:0.1" id="block_38" width="70" height="6" x="138" y="62.0" rx="0.7"/>
	<rect style="fill:#3e73a2;stroke:#ffffff;stroke-width:0.1" id="comm_28" width="70" height="2" x="138" y="69.0" rx="0.7"/>
	<rect style="fill:#3e73a2;stroke:#ffffff;stroke-width:0.1" id="comm_29" width="70" height="2" x="138" y="72.0" rx="0.7"/>
	<rect style="fill:#6a6a6a;stroke:#ffffff;stroke-width:0.1" id="block_39" width="70" height="6" x="138" y="75.0" rx="0.7"/>
	<rect style="fill:#6a6a6a;stroke:#ffffff;stroke-width:0.1" id="block_40" width="70" height="6" x="138" y="82.0" rx="0.7"/>
	<rect style="fill:#6a6a6a;stroke:#ffffff;stroke-width:0.1" id="block_41" width="70" height="6" x="138" y="89.0" rx="0.7"/>
	<rect style="fill:#6a6a6a;stroke:#ffffff;stroke-width:0.1" id="block_42" width="70" height="6" x="138" y="96.0" rx="0.7"/>
	<rect style="fill:#3e73a2;stroke:#ffffff;stroke-width:0.1" id="comm_30" width="70" height="2" x="138" y="103.0" rx="0.7"/>
	<rect style="fill:#3e73a2;stroke:#ffffff;stroke-width:0.1" id="comm_31" width="70" height="2" x="138" y="106.0" rx="0.7"/>
	<rect style="fill:#6a6a6a;stroke:#ffffff;stroke-width:0.1" id="block_43" width="70" height="6" x="138" y="109.0" rx="0.7"/>
	<rect style="fill:#6a6a6a;stroke:#ffffff;stroke-width:0.1" id="block_44" width="70" height="6" x="138" y="116.0" rx="0.7"/>
	<rect style="fill:#6b3fa1;stroke:#ffffff;stroke-width:0.1" id="comm_32" width="70" height="2" x="138" y="123.0" rx="0.7"/>
	<rect style="fill:#6a6a6a;stroke:#ffffff;stroke-width:0.1" id="block_45" width="70" height="6" x="138" y="126.0" rx="0.7"/>
	<rect style="fill:#6a6a6a;stroke:#ffffff;stroke-width:0.1" id="block_46" width="70" height="6" x="138" y="133.0" rx="0.7"/>
	<rect style="fill:#3e73a2;stroke:#ffffff;stroke-width:0.1" id="comm_33" width="70" height="2" x="138" y="140.0" rx="0.7"/>
	<rect style="fill:#3e73a2;stroke:#ffffff;stroke-width:0.1" id="comm_34" width="70" height="2" x="138" y="143.0" rx="0.7"/>
	<rect style="fill:#6a6a6a;stroke:#ffffff;stroke-width:0.1" id="block_47" width="70" height="6" x="138" y="146.0" rx="0.7"/>
	<rect style="fill:#6a6a6a;stroke:#ffffff;stroke-width:0.1" id="block_48" width="70" height="6" x="138" y="153.0" rx="0.7"/>
	<rect style="fill:#6a6a6a;stroke:#ffffff;stroke-width:0.1" id="block_49" width="70" height="6" x="138" y="160.0" rx="0.7"/>
	<rect style="fill:#6a6a6a;stroke:#ffffff;stroke-width:0.1" id="block_50" width="70" height="6" x="138" y="167.0" rx="0.7"/>
	<rect style="fill:#3e73a2;stroke:#ffffff;stroke-width:0.1" id="comm_35" width="70" height="2" x="138" y="174.0" rx="0.7"/>
	<rect style="fill:#3e73a2;stroke:#ffffff;stroke-width:0.1" id="comm_36" width="70" height="2" x="138" y="177.0" rx="0.7"/>
	<rect style="fill:#6a6a6a;stroke:#ffffff;stroke-width:0.1" id="block_51" width="70" height="6" x="138" y="180.0" rx="0.7"/>
	<rect style="fill:#6a6a6a;stroke:#ffffff;stroke-width:0.1" id="block_52" width="70" height="6" x="138" y="187.0" rx="0.7"/>
	<rect style="fill:#6b3fa1;stroke:#ffffff;stroke-width:0.1" id="comm_37" width="70" height="2" x="138" y="194.0" rx="0.7"/>
	<rect style="fill:#6a6a6a;stroke:#ffffff;stroke-width:0.1" id="block_53" width="70" height="6" x="138" y="197.0" rx="0.7"/>
	<rect style="fill:#6a6a6a;stroke:#ffffff;stroke-width:0.1" id="block_54" width="70" height="6" x="138" y="204.0" rx="0.7"/>
	<rect style="fill:#3e73a2;stroke:#ffffff;stroke-width:0.1" id="comm_38" width="70" height="2" x="138" y="211.0" rx="0.7"/>
	<rect style="fill:#3e73a2;stroke:#ffffff;stroke-width:0.1" id="comm_39" width="70" height="2" x="138" y="214.0" rx="0.7"/>
	<rect style="fill:#6a6a6a;stroke:#ffffff;stroke-width:0.1" id="block_55" width="70" height="6" x="138" y="217.0" rx="0.7"/>
	<rect style="fill:#6a6a6a;stroke:#ffffff;stroke-width:0.1" id="block_56" width="70" height="6" x="138" y="224.0" rx="0.7"/>
	<rect style="fill:#6a6a6a;stroke:#ffffff;stroke-width:0.1" id="block_57" width="70" height="6" x="138" y="231.0" rx="0.7"/>
	<rect style="fill:#6a6a6a;stroke:#ffffff;stroke-width:0.1" id="block_58" width="70" height="6" x="138" y="238.0" rx="0.7"/>
	<rect style="fill:#3e73a2;stroke:#ffffff;stroke-width:0.1" id="comm_40" width="70" height="2" x="138" y="245.0" rx="0.7"/>
	<rect style="fill:#3e73a2;stroke:#ffffff;stroke-width:0.1" id="comm_41" width="70" height="2" x="138" y="248.0" rx="0.7"/>
	<rect style="fill:#6a6a6a;stroke:#ffffff;stroke-width:0.1" id="block_59" width="70" height="6" x="138" y="251.0" rx="0.7"/>
	<rect style="fill:#6a6a6a;stroke:#ffffff;stroke-width:0.1" id="block_60" width="70" height="6" x="138" y="258.0" rx="0.7"/>
	<rect style="fill:#6b3fa1;stroke:#ffffff;stroke-width:0.1" id="comm_42" width="70" height="2" x="138" y="265.0" rx="0.7"/>
	<rect style="fill:#6a6a6a;stroke:#ffffff;stroke-width:0.1" id="block_61" width="70" height="6" x="138" y="268.0" rx="0.7"/>
	<rect style="fill:#6a6a6a;stroke:#ffffff;stroke-width:0.1" id="block_62" width="70" height="6" x="138" y="275.0" rx="0.7"/>
	<rect style="fill:#3e73a2;stroke:#ffffff;stroke-width:0.1" id="comm_43" width="70" height="2" x="138" y="282.0" rx="0.7"/>
	<rect style="fill:#3e73a2;stroke:#ffffff;stroke-width:0.1" id="comm_44" width="70" height="2" x="138" y="285.0" rx="0.7"/>
	<rect style="fill:#6a6a6a;stroke:#ffffff;stroke-width:0.1" id="block_63" width="70" height="6" x="138" y="288.0" rx="0.7"/>
	<rect style="fill:#6a6a6a;stroke:#ffffff;stroke-width:0.1" id="block_64" width="70" height="6" x="138" y="295.0" rx="0.7"/>
	<g id="link_1" style="fill:none;stroke:#3e73a2;stroke-width:1">
		<path d="M 88 33.0 H 90"/>
		<path d="M 88 28.0 H 90"/>
		<path d="M 90 27.85 V 33.15"/>
	</g>
	<g id="link_2" style="fill:none;stroke:#3e73a2;stroke-width:1">
		<path d="M 88 33.0 H 92"/>
		<path d="M 88 21.0 H 92"/>
		<path d="M 92 20.85 V 33.15"/>
	</g>
	<g id="link_3" style="fill:none;stroke:#3e73a2;stroke-width:1">
		<path d="M 88 36.0 H 90"/>
		<path d="M 88 41.0 H 90"/>
		<path d="M 90 35.85 V 41.15"/>
	</g>
	<g id="link_4" style="fill:none;stroke:#3e73a2;stroke-width:1">
		<path d="M 88 36.0 H 92"/>
		<path d="M 88 48.0 H 92"/>
		<path d="M 92 35.85 V 48.15"/>
	</g>
	<g id="link_1" style="fill:none;stroke:#3e73a2;stroke-width:1">
		<path d="M 88 70.0 H 90"/>
		<path d="M 88 65.0 H 90"/>
		<path d="M 90 64.85 V 70.15"/>
	</g>
	<g id="link_2" style="fill:none;stroke:#3e73a2;stroke-width:1">
		<path d="M 88 70.0 H 92"/>
		<path d="M 88 58.0 H 92"/>
		<path d="M 92 57.85 V 70.15"/>
	</g>
	<g id="link_3" style="fill:none;stroke:#3e73a2;stroke-width:1">
		<path d="M 88 73.0 H 90"/>
		<path d="M 88 78.0 H 90"/>
		<path d="M 90 72.85 V 78.15"/>
	</g>
	<g id="link_4" style="fill:none;stroke:#3e73a2;stroke-width:1">
		<path d="M 88 73.0 H 92"/>
		<path d="M 88 85.0 H 92"/>
		<path d="M 92 72.85 V 85.15"/>
	</g>
	<g id="link_4" style="fill:none;stroke:#6b3fa1;stroke-width:1">
		<path d="M 88 53.0 H 94"/>
		<path d="M 88 21.0 H 94"/>
		<path d="M 94 20.85 V 53.15"/>
	</g>
	<g id="link_4" style="fill:none;stroke:#6b3fa1;stroke-width:1">
		<path d="M 88 53.0 H 96"/>
		<path d="M 88 28.0 H 96"/>
		<path d="M 96 27.85 V 53.15"/>
	</g>
	<g id="link_4" style="fill:none;stroke:#6b3fa1;stroke-width:1">
		<path d="M 88 53.0 H 98"/>
		<path d="M 88 41.0 H 98"/>
		<path d="M 98 40.85 V 53.15"/>
	</g>
	<g id="link_4" style="fill:none;stroke:#6b3fa1;stroke-width:1">
		<path d="M 88 53.0 H 100"/>
		<path d="M 88 48.0 H 100"/>
		<path d="M 100 47.85 V 53.15"/>
	</g>
	<g id="link_4" style="fill:none;stroke:#6b3fa1;stroke-width:1">
		<path d="M 88 53.0 H 102"/>
		<path d="M 88 58.0 H 102"/>
		<path d="M 102 52.85 V 58.15"/>
	</g>
	<g id="link_4" style="fill:none;stroke:#6b3fa1;stroke-width:1">
		<path d="M 88 53.0 H 104"/>
		<path d="M 88 65.0 H 104"/>
		<path d="M 104 52.85 V 65.15"/>
	</g>
	<g id="link_4" style="fill:none;stroke:#6b3fa1;stroke-width:1">
		<path d="M 88 53.0 H 106"/>
		<path d="M 88 78.0 H 106"/>
		<path d="M 106 52.85 V 78.15"/>
	</g>
	<g id="link_4" style="fill:none;stroke:#6b3fa1;stroke-width:1">
		<path d="M 88 53.0 H 108"/>
		<path d="M 88 85.0 H 108"/>
		<path d="M 108 52.85 V 85.15"/>
	</g>
	<g id="link_1" style="fill:none;stroke:#3e73a2;stroke-width:1">
		<path d="M 88 104.0 H 90"/>
		<path d="M 88 99.0 H 90"/>
		<path d="M 90 98.85 V 104.15"/>
	</g>
	<g id="link_2" style="fill:none;stroke:#3e73a2;stroke-width:1">
		<path d="M 88 104.0 H 92"/>
		<path d="M 88 92.0 H 92"/>
		<path d="M 92 91.85 V 104.15"/>
	</g>
	<g id="link_3" style="fill:none;stroke:#3e73a2;stroke-width:1">
		<path d="M 88 107.0 H 90"/>
		<path d="M 88 112.0 H 90"/>
		<path d="M 90 106.85 V 112.15"/>
	</g>
	<g id="link_4" style="fill:none;stroke:#3e73a2;stroke-width:1">
		<path d="M 88 107.0 H 92"/>
		<path d="M 88 119.0 H 92"/>
		<path d="M 92 106.85 V 119.15"/>
	</g>
	<g id="link_1" style="fill:none;stroke:#3e73a2;stroke-width:1">
		<path d="M 88 141.0 H 90"/>
		<path d="M 88 136.0 H 90"/>
		<path d="M 90 135.85 V 141.15"/>
	</g>
	<g id="link_2" style="fill:none;stroke:#3e73a2;stroke-width:1">
		<path d="M 88 141.0 H 92"/>
		<path d="M 88 129.0 H 92"/>
		<path d="M 92 128.85 V 141.15"/>
	</g>
	<g id="link_3" style="fill:none;stroke:#3e73a2;stroke-width:1">
		<path d="M 88 144.0 H 90"/>
		<path d="M 88 149.0 H 90"/>
		<path d="M 90 143.85 V 149.15"/>
	</g>
	<g id="link_4" style="fill:none;stroke:#3e73a2;stroke-width:1">
		<path d="M 88 144.0 H 92"/>
		<path d="M 88 156.0 H 92"/>
		<path d="M 92 143.85 V 156.15"/>
	</g>
	<g id="link_4" style="fill:none;stroke:#6b3fa1;stroke-width:1">
		<path d="M 88 124.0 H 94"/>
		<path d="M 88 92.0 H 94"/>
		<path d="M 94 91.85 V 124.15"/>
	</g>
	<g id="link_4" style="fill:none;stroke:#6b3fa1;stroke-width:1">
		<path d="M 88 124.0 H 96"/>
		<path d="M 88 99.0 H 96"/>
		<path d="M 96 98.85 V 124.15"/>
	</g>
	<g id="link_4" style="fill:none;stroke:#6b3fa1;stroke-width:1">
		<path d="M 88 124.0 H 98"/>
		<path d="M 88 112.0 H 98"/>
		<path d="M 98 111.85 V 124.15"/>
	</g>
	<g id="link_4" style="fill:none;stroke:#6b3fa1;stroke-width:1">
		<path d="M 88 124.0 H 100"/>
		<path d="M 88 119.0 H 100"/>
		<path d="M 100 118.85 V 124.15"/>
	</g>
	<g id="link_4" style="fill:none;stroke:#6b3fa1;stroke-width:1">
		<path d="M 88 124.0 H 102"/>
		<path d="M 88 129.0 H 102"/>
		<path d="M 102 123.85 V 129.15"/>
	</g>
	<g id="link_4" style="fill:none;stroke:#6b3fa1;stroke-width:1">
		<path d="M 88 124.0 H 104"/>
		<path d="M 88 136.0 H 104"/>
		<path d="M 104 123.85 V 136.15"/>
	</g>
	<g id="link_4" style="fill:none;stroke:#6b3fa1;stroke-width:1">
		<path d="M 88 124.0 H 106"/>
		<path d="M 88 149.0 H 106"/>
		<path d="M 106 123.85 V 149.15"/>
	</g>
	<g id="link_4" style="fill:none;stroke:#6b3fa1;stroke-width:1">
		<path d="M 88 124.0 H 108"/>
		<path d="M 88 156.0 H 108"/>
		<path d="M 108 123.85 V 156.15"/>
	</g>
	<g id="link_1" style="fill:none;stroke:#3e73a2;stroke-width:1">
		<path d="M 88 175.0 H 90"/>
		<path d="M 88 170.0 H 90"/>
		<path d="M 90 169.85 V 175.15"/>
	</g>
	<g id="link_2" style="fill:none;stroke:#3e73a2;stroke-width:1">
		<path d="M 88 175.0 H 92"/>
		<path d="M 88 163.0 H 92"/>
		<path d="M 92 162.85 V 175.15"/>
	</g>
	<g id="link_3" style="fill:none;stroke:#3e73a2;stroke-width:1">
		<path d="M 88 178.0 H 90"/>
		<path d="M 88 183.0 H 90"/>
		<path d="M 90 177.85 V 183.15"/>
	</g>
	<g id="link_4" style="fill:none;stroke:#3e73a2;stroke-width:1">
		<path d="M 88 178.0 H 92"/>
		<path d="M 88 190.0 H 92"/>
		<path d="M 92 177.85 V 190.15"/>
	</g>
	<g id="link_1" style="fill:none;stroke:#3e73a2;stroke-width:1">
		<path d="M 88 212.0 H 90"/>
		<path d="M 88 207.0 H 90"/>
		<path d="M 90 206.85 V 212.15"/>
	</g>
	<g id="link_2" style="fill:none;stroke:#3e73a2;stroke-width:1">
		<path d="M 88 212.0 H 92"/>
		<path d="M 88 200.0 H 92"/>
		<path d="M 92 199.85 V 212.15"/>
	</g>
	<g id="link_3" style="fill:none;stroke:#3e73a2;stroke-width:1">
		<path d="M 88 215.0 H 90"/>
		<path d="M 88 220.0 H 90"/>
		<path d="M 90 214.85 V 220.15"/>
	</g>
	<g id="link_4" style="fill:none;stroke:#3e73a2;stroke-width:1">
		<path d="M 88 215.0 H 92"/>
		<path d="M 88 227.0 H 92"/>
		<path d="M 92 214.85 V 227.15"/>
	</g>
	<g id="link_4" style="fill:none;stroke:#6b3fa1;stroke-width:1">
		<path d="M 88 195.0 H 94"/>
		<path d="M 88 163.0 H 94"/>
		<path d="M 94 162.85 V 195.15"/>
	</g>
	<g id="link_4" style="fill:none;stroke:#6b3fa1;stroke-width:1">
		<path d="M 88 195.0 H 96"/>
		<path d="M 88 170.0 H 96"/>
		<path d="M 96 169.85 V 195.15"/>
	</g>
	<g id="link_4" style="fill:none;stroke:#6b3fa1;stroke-width:1">
		<path d="M 88 195.0 H 98"/>
		<path d="M 88 183.0 H 98"/>
		<path d="M 98 182.85 V 195.15"/>
	</g>
	<g id="link_4" style="fill:none;stroke:#6b3fa1;stroke-width:1">
		<path d="M 88 195.0 H 100"/>
		<path d="M 88 190.0 H 100"/>
		<path d="M 100 189.85 V 195.15"/>
	</g>
	<g id="link_4" style="fill:none;stroke:#6b3fa1;stroke-width:1">
		<path d="M 88 195.0 H 102"/>
		<path d="M 88 200.0 H 102"/>
		<path d="M 102 194.85 V 200.15"/>
	</g>
	<g id="link_4" style="fill:none;stroke:#6b3fa1;stroke-width:1">
		<path d="M 88 195.0 H 104"/>
		<path d="M 88 207.0 H 104"/>
		<path d="M 104 194.85 V 207.15"/>
	</g>
	<g id="link_4" style="fill:none;stroke:#6b3fa1;stroke-width:1">
		<path d="M 88 195.0 H 106"/>
		<path d="M 88 220.0 H 106"/>
		<path d="M 106 194.85 V 220.15"/>
	</g>
	<g id="link_4" style="fill:none;stroke:#6b3fa1;stroke-width:1">
		<path d="M 88 195.0 H 108"/>
		<path d="M 88 227.0 H 108"/>
		<path d="M 108 194.85 V 227.15"/>
	</g>
	<g id="link_1" style="fill:none;stroke:#3e73a2;stroke-width:1">
		<path d="M 88 246.0 H 90"/>
		<path d="M 88 241.0 H 90"/>
		<path d="M 90 240.85 V 246.15"/>
	</g>
	<g id="link_2" style="fill:none;stroke:#3e73a2;stroke-width:1">
		<path d="M 88 246.0 H 92"/>
		<path d="M 88 234.0 H 92"/>
		<path d="M 92 233.85 V 246.15"/>
	</g>
	<g id="link_3" style="fill:none;stroke:#3e73a2;stroke-width:1">
		<path d="M 88 249.0 H 90"/>
		<path d="M 88 254.0 H 90"/>
		<path d="M 90 248.85 V 254.15"/>
	</g>
	<g id="link_4" style="fill:none;stroke:#3e73a2;stroke-width:1">
		<path d="M 88 249.0 H 92"/>
		<path d="M 88 261.0 H 92"/>
		<path d="M 92 248.85 V 261.15"/>
	</g>
	<g id="link_1" style="fill:none;stroke:#3e73a2;stroke-width:1">
		<path d="M 88 283.0 H 90"/>
		<path d="M 88 278.0 H 90"/>
		<path d="M 90 277.85 V 283.15"/>
	</g>
	<g id="link_2" style="fill:none;stroke:#3e73a2;stroke-width:1">
		<path d="M 88 283.0 H 92"/>
		<path d="M 88 271.0 H 92"/>
		<path d="M 92 270.85 V 283.15"/>
	</g>
	<g id="link_3" style="fill:none;stroke:#3e73a2;stroke-width:1">
		<path d="M 88 286.0 H 90"/>
		<path d="M 88 291.0 H 90"/>
		<path d="M 90 285.85 V 291.15"/>
	</g>
	<g id="link_4" style="fill:none;stroke:#3e73a2;stroke-width:1">
		<path d="M 88 286.0 H 92"/>
		<path d="M 88 298.0 H 92"/>
		<path d="M 92 285.85 V 298.15"/>
	</g>
	<g id="link_4" style="fill:none;stroke:#6b3fa1;stroke-width:1">
		<path d="M 88 266.0 H 94"/>
		<path d="M 88 234.0 H 94"/>
		<path d="M 94 233.85 V 266.15"/>
	</g>
	<g id="link_4" style="fill:none;stroke:#6b3fa1;stroke-width:1">
		<path d="M 88 266.0 H 96"/>
		<path d="M 88 241.0 H 96"/>
		<path d="M 96 240.85 V 266.15"/>
	</g>
	<g id="link_4" style="fill:none;stroke:#6b3fa1;stroke-width:1">
		<path d="M 88 266.0 H 98"/>
		<path d="M 88 254.0 H 98"/>
		<path d="M 98 253.85 V 266.15"/>
	</g>
	<g id="link_4" style="fill:none;stroke:#6b3fa1;stroke-width:1">
		<path d="M 88 266.0 H 100"/>
		<path d="M 88 261.0 H 100"/>
		<path d="M 100 260.85 V 266.15"/>
	</g>
	<g id="link_4" style="fill:none;stroke:#6b3fa1;stroke-width:1">
		<path d="M 88 266.0 H 102"/>
		<path d="M 88 271.0 H 102"/>
		<path d="M 102 265.85 V 271.15"/>
	</g>
	<g id="link_4" style="fill:none;stroke:#6b3fa1;stroke-width:1">
		<path d="M 88 266.0 H 104"/>
		<path d="M 88 278.0 H 104"/>
		<path d="M 104 265.85 V 278.15"/>
	</g>
	<g id="link_4" style="fill:none;stroke:#6b3fa1;stroke-width:1">
		<path d="M 88 266.0 H 106"/>
		<path d="M 88 291.0 H 106"/>
		<path d="M 106 265.85 V 291.15"/>
	</g>
	<g id="link_4" style="fill:none;stroke:#6b3fa1;stroke-width:1">
		<path d="M 88 266.0 H 108"/>
		<path d="M 88 298.0 H 108"/>
		<path d="M 108 265.85 V 298.15"/>
	</g>
	<g id="link_4" style="fill:none;stroke:#3e73a2;stroke-width:1">
		<path d="M 18 13.0 H 16"/>
		<path d="M 18 33.0 H 16"/>
		<path d="M 18 36.0 H 16"/>
		<path d="M 18 70.0 H 16"/>
		<path d="M 18 73.0 H 16"/>
		<path d="M 18 104.0 H 16"/>
		<path d="M 18 107.0 H 16"/>
		<path d="M 18 141.0 H 16"/>
		<path d="M 18 144.0 H 16"/>
		<path d="M 18 175.0 H 16"/>
		<path d="M 18 178.0 H 16"/>
		<path d="M 18 212.0 H 16"/>
		<path d="M 18 215.0 H 16"/>
		<path d="M 18 246.0 H 16"/>
		<path d="M 18 249.0 H 16"/>
		<path d="M 18 283.0 H 16"/>
		<path d="M 18 286.0 H 16"/>
		<path d="M 16 12.85 V 286.15"/>
	</g>
	<g id="link_4" style="fill:none;stroke:#6b3fa1;stroke-width:1">
		<path d="M 18 16.0 H 14"/>
		<path d="M 18 53.0 H 14"/>
		<path d="M 14 15.85 V 53.15"/>
	</g>
	<g id="link_4" style="fill:none;stroke:#6b3fa1;stroke-width:1">
		<path d="M 18 16.0 H 12"/>
		<path d="M 18 124.0 H 12"/>
		<path d="M 12 15.85 V 124.15"/>
	</g>
	<g id="link_4" style="fill:none;stroke:#6b3fa1;stroke-width:1">
		<path d="M 18 16.0 H 10"/>
		<path d="M 18 195.0 H 10"/>
		<path d="M 10 15.85 V 195.15"/>
	</g>
	<g id="link_4" style="fill:none;stroke:#6b3fa1;stroke-width:1">
		<path d="M 18 16.0 H 8"/>
		<path d="M 18 266.0 H 8"/>
		<path d="M 8 15.85 V 266.15"/>
	</g>
	<g id="link_1" style="fill:none;stroke:#3e73a2;stroke-width:1">
		<path d="M 138 33.0 H 136"/>
		<path d="M 138 28.0 H 136"/>
		<path d="M 136 27.85 V 33.15"/>
	</g>
	<g id="link_2" style="fill:none;stroke:#3e73a2;stroke-width:1">
		<path d="M 138 33.0 H 134"/>
		<path d="M 138 21.0 H 134"/>
		<path d="M 134 20.85 V 33.15"/>
	</g>
	<g id="link_3" style="fill:none;stroke:#3e73a2;stroke-width:1">
		<path d="M 138 36.0 H 136"/>
		<path d="M 138 41.0 H 136"/>
		<path d="M 136 35.85 V 41.15"/>
	</g>
	<g id="link_4" style="fill:none;stroke:#3e73a2;stroke-width:1">
		<path d="M 138 36.0 H 134"/>
		<path d="M 138 48.0 H 134"/>
		<path d="M 134 35.85 V 48.15"/>
	</g>
	<g id="link_1" style="fill:none;stroke:#3e73a2;stroke-width:1">
		<path d="M 138 70.0 H 136"/>
		<path d="M 138 65.0 H 136"/>
		<path d="M 136 64.85 V 70.15"/>
	</g>
	<g id="link_2" style="fill:none;stroke:#3e73a2;stroke-width:1">
		<path d="M 138 70.0 H 134"/>
		<path d="M 138 58.0 H 134"/>
		<path d="M 134 57.85 V 70.15"/>
	</g>
	<g id="link_3" style="fill:none;stroke:#3e73a2;stroke-width:1">
		<path d="M 138 73.0 H 136"/>
		<path d="M 138 78.0 H 136"/>
		<path d="M 136 72.85 V 78.15"/>
	</g>
	<g id="link_4" style="fill:none;stroke:#3e73a2;stroke-width:1">
		<path d="M 138 73.0 H 134"/>
		<path d="M 138 85.0 H 134"/>
		<path d="M 134 72.85 V 85.15"/>
	</g>
	<g id="link_4" style="fill:none;stroke:#6b3fa1;stroke-width:1">
		<path d="M 138 53.0 H 132"/>
		<path d="M 138 21.0 H 132"/>
		<path d="M 132 20.85 V 53.15"/>
	</g>
	<g id="link_4" style="fill:none;stroke:#6b3fa1;stroke-width:1">
		<path d="M 138 53.0 H 130"/>
		<path d="M 138 28.0 H 130"/>
		<path d="M 130 27.85 V 53.15"/>
	</g>
	<g id="link_4" style="fill:none;stroke:#6b3fa1;stroke-width:1">
		<path d="M 138 53.0 H 128"/>
		<path d="M 138 41.0 H 128"/>
		<path d="M 128 40.85 V 53.15"/>
	</g>
	<g id="link_4" style="fill:none;stroke:#6b3fa1;stroke-width:1">
		<path d="M 138 53.0 H 126"/>
		<path d="M 138 48.0 H 126"/>
		<path d="M 126 47.85 V 53.15"/>
	</g>
	<g id="link_4" style="fill:none;stroke:#6b3fa1;stroke-width:1">
		<path d="M 138 53.0 H 124"/>
		<path d="M 138 58.0 H 124"/>
		<path d="M 124 52.85 V 58.15"/>
	</g>
	<g id="link_4" style="fill:none;stroke:#6b3fa1;stroke-width:1">
		<path d="M 138 53.0 H 122"/>
		<path d="M 138 65.0 H 122"/>
		<path d="M 122 52.85 V 65.15"/>
	</g>
	<g id="link_4" style="fill:none;stroke:#6b3fa1;stroke-width:1">
		<path d="M 138 53.0 H 120"/>
		<path d="M 138 78.0 H 120"/>
		<path d="M 120 52.85 V 78.15"/>
	</g>
	<g id="link_4" style="fill:none;stroke:#6b3fa1;stroke-width:1">
		<path d="M 138 53.0 H 118"/>
		<path d="M 138 85.0 H 118"/>
		<path d="M 118 52.85 V 85.15"/>
	</g>
	<g id="link_1" style="fill:none;stroke:#3e73a2;stroke-width:1">
		<path d="M 138 104.0 H 136"/>
		<path d="M 138 99.0 H 136"/>
		<path d="M 136 98.85 V 104.15"/>
	</g>
	<g id="link_2" style="fill:none;stroke:#3e73a2;stroke-width:1">
		<path d="M 138 104.0 H 134"/>
		<path d="M 138 92.0 H 134"/>
		<path d="M 134 91.85 V 104.15"/>
	</g>
	<g id="link_3" style="fill:none;stroke:#3e73a2;stroke-width:1">
		<path d="M 138 107.0 H 136"/>
		<path d="M 138 112.0 H 136"/>
		<path d="M 136 106.85 V 112.15"/>
	</g>
	<g id="link_4" style="fill:none;stroke:#3e73a2;stroke-width:1">
		<path d="M 138 107.0 H 134"/>
		<path d="M 138 119.0 H 134"/>
		<path d="M 134 106.85 V 119.15"/>
	</g>
	<g id="link_1" style="fill:none;stroke:#3e73a2;stroke-width:1">
		<path d="M 138 141.0 H 136"/>
		<path d="M 138 136.0 H 136"/>
		<path d="M 136 135.85 V 141.15"/>
	</g>
	<g id="link_2" style="fill:none;stroke:#3e73a2;stroke-width:1">
		<path d="M 138 141.0 H 134"/>
		<path d="M 138 129.0 H 134"/>
		<path d="M 134 128.85 V 141.15"/>
	</g>
	<g id="link_3" style="fill:none;stroke:#3e73a2;stroke-width:1">
		<path d="M 138 144.0 H 136"/>
		<path d="M 138 149.0 H 136"/>
		<path d="M 136 143.85 V 149.15"/>
	</g>
	<g id="link_4" style="fill:none;stroke:#3e73a2;stroke-width:1">
		<path d="M 138 144.0 H 134"/>
		<path d="M 138 156.0 H 134"/>
		<path d="M 134 143.85 V 156.15"/>
	</g>
	<g id="link_4" style="fill:none;stroke:#6b3fa1;stroke-width:1">
		<path d="M 138 124.0 H 132"/>
		<path d="M 138 92.0 H 132"/>
		<path d="M 132 91.85 V 124.15"/>
	</g>
	<g id="link_4" style="fill:none;stroke:#6b3fa1;stroke-width:1">
		<path d="M 138 124.0 H 130"/>
		<path d="M 138 99.0 H 130"/>
		<path d="M 130 98.85 V 124.15"/>
	</g>
	<g id="link_4" style="fill:none;stroke:#6b3fa1;stroke-width:1">
		<path d="M 138 124.0 H 128"/>
		<path d="M 138 112.0 H 128"/>
		<path d="M 128 111.85 V 124.15"/>
	</g>
	<g id="link_4" style="fill:none;stroke:#6b3fa1;stroke-width:1">
		<path d="M 138 124.0 H 126"/>
		<path d="M 138 119.0 H 126"/>
		<path d="M 126 118.85 V 124.15"/>
	</g>
	<g id="link_4" style="fill:none;stroke:#6b3fa1;stroke-width:1">
		<path d="M 138 124.0 H 124"/>
		<path d="M 138 129.0 H 124"/>
		<path d="M 124 123.85 V 129.15"/>
	</g>
	<g id="link_4" style="fill:none;stroke:#6b3fa1;stroke-width:1">
		<path d="M 138 124.0 H 122"/>
		<path d="M 138 136.0 H 122"/>
		<path d="M 122 123.85 V 136.15"/>
	</g>
	<g id="link_4" style="fill:none;stroke:#6b3fa1;stroke-width:1">
		<path d="M 138 124.0 H 120"/>
		<path d="M 138 149.0 H 120"/>
		<path d="M 120 123.85 V 149.15"/>
	</g>
	<g id="link_4" style="fill:none;stroke:#6b3fa1;stroke-width:1">
		<path d="M 138 124.0 H 118"/>
		<path d="M 138 156.0 H 118"/>
		<path d="M 118 123.85 V 156.15"/>
	</g>
	<g id="link_1" style="fill:none;stroke:#3e73a2;stroke-width:1">
		<path d="M 138 175.0 H 136"/>
		<path d="M 138 170.0 H 136"/>
		<path d="M 136 169.85 V 175.15"/>
	</g>
	<g id="link_2" style="fill:none;stroke:#3e73a2;stroke-width:1">
		<path d="M 138 175.0 H 134"/>
		<path d="M 138 163.0 H 134"/>
		<path d="M 134 162.85 V 175.15"/>
	</g>
	<g id="link_3" style="fill:none;stroke:#3e73a2;stroke-width:1">
		<path d="M 138 178.0 H 136"/>
		<path d="M 138 183.0 H 136"/>
		<path d="M 136 177.85 V 183.15"/>
	</g>
	<g id="link_4" style="fill:none;stroke:#3e73a2;stroke-width:1">
		<path d="M 138 178.0 H 134"/>
		<path d="M 138 190.0 H 134"/>
		<path d="M 134 177.85 V 190.15"/>
	</g>
	<g id="link_1" style="fill:none;stroke:#3e73a2;stroke-width:1">
		<path d="M 138 212.0 H 136"/>
		<path d="M 138 207.0 H 136"/>
		<path d="M 136 206.85 V 212.15"/>
	</g>
	<g id="link_2" style="fill:none;stroke:#3e73a2;stroke-width:1">
		<path d="M 138 212.0 H 134"/>
		<path d="M 138 200.0 H 134"/>
		<path d="M 134 199.85 V 212.15"/>
	</g>
	<g id="link_3" style="fill:none;stroke:#3e73a2;stroke-width:1">
		<path d="M 138 215.0 H 136"/>
		<path d="M 138 220.0 H 136"/>
		<path d="M 136 214.85 V 220.15"/>
	</g>
	<g id="link_4" style="fill:none;stroke:#3e73a2;stroke-width:1">
		<path d="M 138 215.0 H 134"/>
		<path d="M 138 227.0 H 134"/>
		<path d="M 134 214.85 V 227.15"/>
	</g>
	<g id="link_4" style="fill:none;stroke:#6b3fa1;stroke-width:1">
		<path d="M 138 195.0 H 132"/>
		<path d="M 138 163.0 H 132"/>
		<path d="M 132 162.85 V 195.15"/>
	</g>
	<g id="link_4" style="fill:none;stroke:#6b3fa1;stroke-width:1">
		<path d="M 138 195.0 H 130"/>
		<path d="M 138 170.0 H 130"/>
		<path d="M 130 169.85 V 195.15"/>
	</g>
	<g id="link_4" style="fill:none;stroke:#6b3fa1;stroke-width:1">
		<path d="M 138 195.0 H 128"/>
		<path d="M 138 183.0 H 128"/>
		<path d="M 128 182.85 V 195.15"/>
	</g>
	<g id="link_4" style="fill:none;stroke:#6b3fa1;stroke-width:1">
		<path d="M 138 195.0 H 126"/>
		<path d="M 138 190.0 H 126"/>
		<path d="M 126 189.85 V 195.15"/>
	</g>
	<g id="link_4" style="fill:none;stroke:#6b3fa1;stroke-width:1">
		<path d="M 138 195.0 H 124"/>
		<path d="M 138 200.0 H 124"/>
		<path d="M 124 194.85 V 200.15"/>
	</g>
	<g id="link_4" style="fill:none;stroke:#6b3fa1;stroke-width:1">
		<path d="M 138 195.0 H 122"/>
		<path d="M 138 207.0 H 122"/>
		<path d="M 122 194.85 V 207.15"/>
	</g>
	<g id="link_4" style="fill:none;stroke:#6b3fa1;stroke-width:1">
		<path d="M 138 195.0 H 120"/>
		<path d="M 138 220.0 H 120"/>
		<path d="M 120 194.85 V 220.15"/>
	</g>
	<g id="link_4" style="fill:none;stroke:#6b3fa1;stroke-width:1">
		<path d="M 138 195.0 H 118"/>
		<path d="M 138 227.0 H 118"/>
		<path d="M 118 194.85 V 227.15"/>
	</g>
	<g id="link_1" style="fill:none;stroke:#3e73a2;stroke-width:1">
		<path d="M 138 246.0 H 136"/>
		<path d="M 138 241.0 H 136"/>
		<path d="M 136 240.85 V 246.15"/>
	</g>
	<g id="link_2" style="fill:none;stroke:#3e73a2;stroke-width:1">
		<path d="M 138 246.0 H 134"/>
		<path d="M 138 234.0 H 134"/>
		<path d="M 134 233.85 V 246.15"/>
	</g>
	<g id="link_3" style="fill:none;stroke:#3e73a2;stroke-width:1">
		<path d="M 138 249.0 H 136"/>
		<path d="M 138 254.0 H 136"/>
		<path d="M 136 248.85 V 254.15"/>
	</g>
	<g id="link_4" style="fill:none;stroke:#3e73a2;stroke-width:1">
		<path d="M 138 249.0 H 134"/>
		<path d="M 138 261.0 H 134"/>
		<path d="M 134 248.85 V 261.15"/>
	</g>
	<g id="link_1" style="fill:none;stroke:#3e73a2;stroke-width:1">
		<path d="M 138 283.0 H 136"/>
		<path d="M 138 278.0 H 136"/>
		<path d="M 136 277.85 V 283.15"/>
	</g>
	<g id="link_2" style="fill:none;stroke:#3e73a2;stroke-width:1">
		<path d="M 138 283.0 H 134"/>
		<path d="M 138 271.0 H 134"/>
		<path d="M 134 270.85 V 283.15"/>
	</g>
	<g id="link_3" style="fill:none;stroke:#3e73a2;stroke-width:1">
		<path d="M 138 286.0 H 136"/>
		<path d="M 138 291.0 H 136"/>
		<path d="M 136 285.85 V 291.15"/>
	</g>
	<g id="link_4" style="fill:none;stroke:#3e73a2;stroke-width:1">
		<path d="M 138 286.0 H 134"/>
		<path d="M 138 298.0 H 134"/>
		<path d="M 134 285.85 V 298.15"/>
	</g>
	<g id="link_4" style="fill:none;stroke:#6b3fa1;stroke-width:1">
		<path d="M 138 266.0 H 132"/>
		<path d="M 138 234.0 H 132"/>
		<path d="M 132 233.85 V 266.15"/>
	</g>
	<g id="link_4" style="fill:none;stroke:#6b3fa1;stroke-width:1">
		<path d="M 138 266.0 H 130"/>
		<path d="M 138 241.0 H 130"/>
		<path d="M 130 240.85 V 266.15"/>
	</g>
	<g id="link_4" style="fill:none;stroke:#6b3fa1;stroke-width:1">
		<path d="M 138 266.0 H 128"/>
		<path d="M 138 254.0 H 128"/>
		<path d="M 128 253.85 V 266.15"/>
	</g>
	<g id="link_4" style="fill:none;stroke:#6b3fa1;stroke-width:1">
		<path d="M 138 266.0 H 126"/>
		<path d="M 138 261.0 H 126"/>
		<path d="M 126 260.85 V 266.15"/>
	</g>
	<g id="link_4" style="fill:none;stroke:#6b3fa1;stroke-width:1">
		<path d="M 138 266.0 H 124"/>
		<path d="M 138 271.0 H 124"/>
		<path d="M 124 265.85 V 271.15"/>
	</g>
	<g id="link_4" style="fill:none;stroke:#6b3fa1;stroke-width:1">
		<path d="M 138 266.0 H 122"/>
		<path d="M 138 278.0 H 122"/>
		<path d="M 122 265.85 V 278.15"/>
	</g>
	<g id="link_4" style="fill:none;stroke:#6b3fa1;stroke-width:1">
		<path d="M 138 266.0 H 120"/>
		<path d="M 138 291.0 H 120"/>
		<path d="M 120 265.85 V 291.15"/>
	</g>
	<g id="link_4" style="fill:none;stroke:#6b3fa1;stroke-width:1">
		<path d="M 138 266.0 H 118"/>
		<path d="M 138 298.0 H 118"/>
		<path d="M 118 265.85 V 298.15"/>
	</g>
	<g id="link_4" style="fill:none;stroke:#3e73a2;stroke-width:1">
		<path d="M 208 13.0 H 210"/>
		<path d="M 208 33.0 H 210"/>
		<path d="M 208 36.0 H 210"/>
		<path d="M 208 70.0 H 210"/>
		<path d="M 208 73.0 H 210"/>
		<path d="M 208 104.0 H 210"/>
		<path d="M 208 107.0 H 210"/>
		<path d="M 208 141.0 H 210"/>
		<path d="M 208 144.0 H 210"/>
		<path d="M 208 175.0 H 210"/>
		<path d="M 208 178.0 H 210"/>
		<path d="M 208 195.0 H 210"/>
		<path d="M 208 215.0 H 210"/>
		<path d="M 208 246.0 H 210"/>
		<path d="M 208 249.0 H 210"/>
		<path d="M 208 266.0 H 210"/>
		<path d="M 208 286.0 H 210"/>
		<path d="M 210 12.85 V 286.15"/>
	</g>
	<g id="link_4" style="fill:none;stroke:#6b3fa1;stroke-width:1">
		<path d="M 208 16.0 H 212"/>
		<path d="M 208 53.0 H 212"/>
		<path d="M 212 15.85 V 53.15"/>
	</g>
	<g id="link_4" style="fill:none;stroke:#6b3fa1;stroke-width:1">
		<path d="M 208 16.0 H 214"/>
		<path d="M 208 124.0 H 214"/>
		<path d="M 214 15.85 V 124.15"/>
	</g>
	<g id="link_4" style="fill:none;stroke:#6b3fa1;stroke-width:1">
		<path d="M 208 16.0 H 216"/>
		<path d="M 208 195.0 H 216"/>
		<path d="M 216 15.85 V 195.15"/>
	</g>
	<g id="link_4" style="fill:none;stroke:#6b3fa1;stroke-width:1">
		<path d="M 208 16.0 H 218"/>
		<path d="M 208 266.0 H 218"/>
		<path d="M 218 15.85 V 266.15"/>
	</g>
</svg>
