<svg xmlns="http://www.w3.org/2000/svg" width="100%" height="100%" viewBox="0 0 166.5 249.0">
	<rect style="fill:#d0d0d0;stroke:#000000;stroke-width:0.3" id="main" width="164.5" height="247.0" x="1" y="1" rx="3"/>
	<text style="font-size:10;fill:#000000" x="82.25" y="10.8" id="name" text-anchor="middle">SC name</text>
	<rect style="fill:#6a6a6a;stroke:#ffffff;stroke-width:0.1" id="n48727;n48728;n48731;n48732;" width="70" height="6" x="8" y="12.0" rx="0.7"/>
	<rect style="fill:#6a6a6a;stroke:#ffffff;stroke-width:0.1" id="n48725;n48726;n48729;n48730;" width="70" height="6" x="8" y="19.0" rx="0.7"/>
	<rect style="fill:#6a6a6a;stroke:#ffffff;stroke-width:0.1" id="n48719;n48720;n48723;n48724;" width="70" height="6" x="8" y="26.0" rx="0.7"/>
	<rect style="fill:#6a6a6a;stroke:#ffffff;stroke-width:0.1" id="n48717;n48718;n48721;n48722;" width="70" height="6" x="8" y="33.0" rx="0.7"/>
	<rect style="fill:#6a6a6a;stroke:#ffffff;stroke-width:0.1" id="n48711;n48712;n48715;n48716;" width="70" height="6" x="8" y="40.0" rx="0.7"/>
	<rect style="fill:#6a6a6a;stroke:#ffffff;stroke-width:0.1" id="n48709;n48710;n48713;n48714;" width="70" height="6" x="8" y="47.0" rx="0.7"/>
	<rect style="fill:#6a6a6a;stroke:#ffffff;stroke-width:0.1" id="n48703;n48704;n48707;n48708;" width="70" height="6" x="8" y="54.0" rx="0.7"/>
	<rect style="fill:#6a6a6a;stroke:#ffffff;stroke-width:0.1" id="n48701;n48702;n48705;n48706;" width="70" height="6" x="8" y="61.0" rx="0.7"/>
	<rect style="fill:#6a6a6a;stroke:#ffffff;stroke-width:0.1" id="n48627;n48628;n48631;n48632;" width="70" height="6" x="8" y="68.0" rx="0.7"/>
	<rect style="fill:#6a6a6a;stroke:#ffffff;stroke-width:0.1" id="n48625;n48626;n48629;n48630;" width="70" height="6" x="8" y="75.0" rx="0.7"/>
	<rect style="fill:#6a6a6a;stroke:#ffffff;stroke-width:0.1" id="n48619;n48620;n48623;n48624;" width="70" height="6" x="8" y="82.0" rx="0.7"/>
	<rect style="fill:#6a6a6a;stroke:#ffffff;stroke-width:0.1" id="n48617;n48618;n48621;n48622;" width="70" height="6" x="8" y="89.0" rx="0.7"/>
	<rect style="fill:#6a6a6a;stroke:#ffffff;stroke-width:0.1" id="n48611;n48612;n48615;n48616;" width="70" height="6" x="8" y="96.0" rx="0.7"/>
	<rect style="fill:#6a6a6a;stroke:#ffffff;stroke-width:0.1" id="n48609;n48610;n48613;n48614;" width="70" height="6" x="8" y="103.0" rx="0.7"/>
	<rect style="fill:#6a6a6a;stroke:#ffffff;stroke-width:0.1" id="n48603;n48604;n48607;n48608;" width="70" height="6" x="8" y="110.0" rx="0.7"/>
	<rect style="fill:#6a6a6a;stroke:#ffffff;stroke-width:0.1" id="n48601;n48602;n48605;n48606;" width="70" height="6" x="8" y="117.0" rx="0.7"/>
	<rect style="fill:#6a6a6a;stroke:#ffffff;stroke-width:0.1" id="n48527;n48528;n48531;n48532;" width="70" height="6" x="8" y="124.0" rx="0.7"/>
	<rect style="fill:#6a6a6a;stroke:#ffffff;stroke-width:0.1" id="n48525;n48526;n48529;n48530;" width="70" height="6" x="8" y="131.0" rx="0.7"/>
	<rect style="fill:#6a6a6a;stroke:#ffffff;stroke-width:0.1" id="n48519;n48520;n48523;n48524;" width="70" height="6" x="8" y="138.0" rx="0.7"/>
	<rect style="fill:#6a6a6a;stroke:#ffffff;stroke-width:0.1" id="n48517;n48518;n48521;n48522;" width="70" height="6" x="8" y="145.0" rx="0.7"/>
	<rect style="fill:#6a6a6a;stroke:#ffffff;stroke-width:0.1" id="n48511;n48512;n48515;n48516;" width="70" height="6" x="8" y="152.0" rx="0.7"/>
	<rect style="fill:#6a6a6a;stroke:#ffffff;stroke-width:0.1" id="n48509;n48510;n48513;n48514;" width="70" height="6" x="8" y="159.0" rx="0.7"/>
	<rect style="fill:#6a6a6a;stroke:#ffffff;stroke-width:0.1" id="n48503;n48504;n48507;n48508;" width="70" height="6" x="8" y="166.0" rx="0.7"/>
	<rect style="fill:#6a6a6a;stroke:#ffffff;stroke-width:0.1" id="n48501;n48502;n48505;n48506;" width="70" height="6" x="8" y="173.0" rx="0.7"/>
	<rect style="fill:#6a6a6a;stroke:#ffffff;stroke-width:0.1" id="n48427;n48428;n48431;n48432;" width="70" height="6" x="8" y="180.0" rx="0.7"/>
	<rect style="fill:#6a6a6a;stroke:#ffffff;stroke-width:0.1" id="n48425;n48426;n48429;n48430;" width="70" height="6" x="8" y="187.0" rx="0.7"/>
	<rect style="fill:#6a6a6a;stroke:#ffffff;stroke-width:0.1" id="n48419;n48420;n48423;n48424;" width="70" height="6" x="8" y="194.0" rx="0.7"/>
	<rect style="fill:#6a6a6a;stroke:#ffffff;stroke-width:0.1" id="n48417;n48418;n48421;n48422;" width="70" height="6" x="8" y="201.0" rx="0.7"/>
	<rect style="fill:#6a6a6a;stroke:#ffffff;stroke-width:0.1" id="n48411;n48412;n48415;n48416;" width="70" height="6" x="8" y="208.0" rx="0.7"/>
	<rect style="fill:#6a6a6a;stroke:#ffffff;stroke-width:0.1" id="n48409;n48410;n48413;n48414;" width="70" height="6" x="8" y="215.0" rx="0.7"/>
	<rect style="fill:#6a6a6a;stroke:#ffffff;stroke-width:0.1" id="n48403;n48404;n48407;n48408;" width="70" height="6" x="8" y="222.0" rx="0.7"/>
	<rect style="fill:#6a6a6a;stroke:#ffffff;stroke-width:0.1" id="n48401;n48402;n48405;n48406;" width="70" height="6" x="8" y="229.0" rx="0.7"/>
	<rect style="fill:#6a6a6a;stroke:#ffffff;stroke-width:0.1" id="n48001;n48002;n48005;n48006;" width="70" height="6" x="88" y="12.0" rx="0.7"/>
	<rect style="fill:#6a6a6a;stroke:#ffffff;stroke-width:0.1" id="n48003;n48004;n48007;n48008;" width="70" height="6" x="88" y="19.0" rx="0.7"/>
	<rect style="fill:#6a6a6a;stroke:#ffffff;stroke-width:0.1" id="n48009;n48010;n48013;n48014;" width="70" height="6" x="88" y="26.0" rx="0.7"/>
	<rect style="fill:#6a6a6a;stroke:#ffffff;stroke-width:0.1" id="n48011;n48012;n48015;n48016;" width="70" height="6" x="88" y="33.0" rx="0.7"/>
	<rect style="fill:#6a6a6a;stroke:#ffffff;stroke-width:0.1" id="n48017;n48018;n48021;n48022;" width="70" height="6" x="88" y="40.0" rx="0.7"/>
	<rect style="fill:#6a6a6a;stroke:#ffffff;stroke-width:0.1" id="n48019;n48020;n48023;n48024;" width="70" height="6" x="88" y="47.0" rx="0.7"/>
	<rect style="fill:#6a6a6a;stroke:#ffffff;stroke-width:0.1" id="n48025;n48026;n48029;n48030;" width="70" height="6" x="88" y="54.0" rx="0.7"/>
	<rect style="fill:#6a6a6a;stroke:#ffffff;stroke-width:0.1" id="n48027;n48028;n48031;n48032;" width="70" height="6" x="88" y="61.0" rx="0.7"/>
	<rect style="fill:#6a6a6a;stroke:#ffffff;stroke-width:0.1" id="n48101;n48102;n48105;n48106;" width="70" height="6" x="88" y="68.0" rx="0.7"/>
	<rect style="fill:#6a6a6a;stroke:#ffffff;stroke-width:0.1" id="n48103;n48104;n48107;n48108;" width="70" height="6" x="88" y="75.0" rx="0.7"/>
	<rect style="fill:#6a6a6a;stroke:#ffffff;stroke-width:0.1" id="n48109;n48110;n48113;n48114;" width="70" height="6" x="88" y="82.0" rx="0.7"/>
	<rect style="fill:#6a6a6a;stroke:#ffffff;stroke-width:0.1" id="n48111;n48112;n48115;n48116;" width="70" height="6" x="88" y="89.0" rx="0.7"/>
	<rect style="fill:#6a6a6a;stroke:#ffffff;stroke-width:0.1" id="n48117;n48118;n48121;n48122;" width="70" height="6" x="88" y="96.0" rx="0.7"/>
	<rect style="fill:#6a6a6a;stroke:#ffffff;stroke-width:0.1" id="n48119;n48120;n48123;n48124;" width="70" height="6" x="88" y="103.0" rx="0.7"/>
	<rect style="fill:#6a6a6a;stroke:#ffffff;stroke-width:0.1" id="n48125;n48126;n48129;n48130;" width="70" height="6" x="88" y="110.0" rx="0.7"/>
	<rect style="fill:#6a6a6a;stroke:#ffffff;stroke-width:0.1" id="n48127;n48128;n48131;n48132;" width="70" height="6" x="88" y="117.0" rx="0.7"/>
	<rect style="fill:#6a6a6a;stroke:#ffffff;stroke-width:0.1" id="n48201;n48202;n48205;n48206;" width="70" height="6" x="88" y="124.0" rx="0.7"/>
	<rect style="fill:#6a6a6a;stroke:#ffffff;stroke-width:0.1" id="n48203;n48204;n48207;n48208;" width="70" height="6" x="88" y="131.0" rx="0.7"/>
	<rect style="fill:#6a6a6a;stroke:#ffffff;stroke-width:0.1" id="n48209;n48210;n48213;n48214;" width="70" height="6" x="88" y="138.0" rx="0.7"/>
	<rect style="fill:#6a6a6a;stroke:#ffffff;stroke-width:0.1" id="n48211;n48212;n48215;n48216;" width="70" height="6" x="88" y="145.0" rx="0.7"/>
	<rect style="fill:#6a6a6a;stroke:#ffffff;stroke-width:0.1" id="n48217;n48218;n48221;n48222;" width="70" height="6" x="88" y="152.0" rx="0.7"/>
	<rect style="fill:#6a6a6a;stroke:#ffffff;stroke-width:0.1" id="n48219;n48220;n48223;n48224;" width="70" height="6" x="88" y="159.0" rx="0.7"/>
	<rect style="fill:#6a6a6a;stroke:#ffffff;stroke-width:0.1" id="n48225;n48226;n48229;n48230;" width="70" height="6" x="88" y="166.0" rx="0.7"/>
	<rect style="fill:#6a6a6a;stroke:#ffffff;stroke-width:0.1" id="n48227;n48228;n48231;n48232;" width="70" height="6" x="88" y="173.0" rx="0.7"/>
	<rect style="fill:#6a6a6a;stroke:#ffffff;stroke-width:0.1" id="n48301;n48302;n48305;n48306;" width="70" height="6" x="88" y="180.0" rx="0.7"/>
	<rect style="fill:#6a6a6a;stroke:#ffffff;stroke-width:0.1" id="n48303;n48304;n48307;n48308;" width="70" height="6" x="88" y="187.0" rx="0.7"/>
	<rect style="fill:#6a6a6a;stroke:#ffffff;stroke-width:0.1" id="n48309;n48310;n48313;n48314;" width="70" height="6" x="88" y="194.0" rx="0.7"/>
	<rect style="fill:#6a6a6a;stroke:#ffffff;stroke-width:0.1" id="n48311;n48312;n48315;n48316;" width="70" height="6" x="88" y="201.0" rx="0.7"/>
	<rect style="fill:#6a6a6a;stroke:#ffffff;stroke-width:0.1" id="n48317;n48318;n48321;n48322;" width="70" height="6" x="88" y="208.0" rx="0.7"/>
	<rect style="fill:#6a6a6a;stroke:#ffffff;stroke-width:0.1" id="n48319;n48320;n48323;n48324;" width="70" height="6" x="88" y="215.0" rx="0.7"/>
	<rect style="fill:#6a6a6a;stroke:#ffffff;stroke-width:0.1" id="n48325;n48326;n48329;n48330;" width="70" height="6" x="88" y="222.0" rx="0.7"/>
	<rect style="fill:#6a6a6a;stroke:#ffffff;stroke-width:0.1" id="n48327;n48328;n48331;n48332;" width="70" height="6" x="88" y="229.0" rx="0.7"/>
</svg>
